HIERARCHY
ROOT Hips
{
  OFFSET 0.000000 95.000000 0.000000
  CHANNELS 6 Xposition Yposition Zposition Zrotation Xrotation Yrotation
  JOINT Spine
  {
    OFFSET 0.000000 10.000000 0.000000
    CHANNELS 3 Zrotation Xrotation Yrotation
    JOINT Spine1
    {
      OFFSET 0.000000 12.000000 0.000000
      CHANNELS 3 Zrotation Xrotation Yrotation
      JOINT Spine2
      {
        OFFSET 0.000000 12.000000 0.000000
        CHANNELS 3 Zrotation Xrotation Yrotation
        JOINT Neck
        {
          OFFSET 0.000000 10.000000 0.000000
          CHANNELS 3 Zrotation Xrotation Yrotation
          JOINT Head
          {
            OFFSET 0.000000 8.000000 0.000000
            CHANNELS 3 Zrotation Xrotation Yrotation
            End Site
            {
              OFFSET 0.000000 10.000000 0.000000
            }
          }
        }
        JOINT LeftShoulder
        {
          OFFSET 6.000000 8.000000 0.000000
          CHANNELS 3 Zrotation Xrotation Yrotation
          JOINT LeftArm
          {
            OFFSET 12.000000 0.000000 0.000000
            CHANNELS 3 Zrotation Xrotation Yrotation
            JOINT LeftForeArm
            {
              OFFSET 24.000000 0.000000 0.000000
              CHANNELS 3 Zrotation Xrotation Yrotation
              JOINT LeftHand
              {
                OFFSET 22.000000 0.000000 0.000000
                CHANNELS 3 Zrotation Xrotation Yrotation
                JOINT LeftHandThumb1
                {
                  OFFSET 1.800000 -1.400000 0.500000
                  CHANNELS 3 Zrotation Xrotation Yrotation
                  JOINT LeftHandThumb2
                  {
                    OFFSET 2.400000 0.000000 0.000000
                    CHANNELS 3 Zrotation Xrotation Yrotation
                    JOINT LeftHandThumb3
                    {
                      OFFSET 1.900000 0.000000 0.000000
                      CHANNELS 3 Zrotation Xrotation Yrotation
                      End Site
                      {
                        OFFSET 1.600000 0.000000 0.000000
                      }
                    }
                  }
                }
                JOINT LeftHandIndex1
                {
                  OFFSET 6.600000 1.200000 0.300000
                  CHANNELS 3 Zrotation Xrotation Yrotation
                  JOINT LeftHandIndex2
                  {
                    OFFSET 2.000000 0.000000 0.000000
                    CHANNELS 3 Zrotation Xrotation Yrotation
                    JOINT LeftHandIndex3
                    {
                      OFFSET 1.200000 0.000000 0.000000
                      CHANNELS 3 Zrotation Xrotation Yrotation
                      End Site
                      {
                        OFFSET 1.000000 0.000000 0.000000
                      }
                    }
                  }
                }
                JOINT LeftHandMiddle1
                {
                  OFFSET 7.200000 0.000000 0.300000
                  CHANNELS 3 Zrotation Xrotation Yrotation
                  JOINT LeftHandMiddle2
                  {
                    OFFSET 3.000000 0.000000 0.000000
                    CHANNELS 3 Zrotation Xrotation Yrotation
                    JOINT LeftHandMiddle3
                    {
                      OFFSET 2.000000 0.000000 0.000000
                      CHANNELS 3 Zrotation Xrotation Yrotation
                      End Site
                      {
                        OFFSET 1.600000 0.000000 0.000000
                      }
                    }
                  }
                }
                JOINT LeftHandRing1
                {
                  OFFSET 7.100000 -1.000000 0.400000
                  CHANNELS 3 Zrotation Xrotation Yrotation
                  JOINT LeftHandRing2
                  {
                    OFFSET 2.600000 0.000000 0.000000
                    CHANNELS 3 Zrotation Xrotation Yrotation
                    JOINT LeftHandRing3
                    {
                      OFFSET 1.600000 0.000000 0.000000
                      CHANNELS 3 Zrotation Xrotation Yrotation
                      End Site
                      {
                        OFFSET 1.300000 0.000000 0.000000
                      }
                    }
                  }
                }
                JOINT LeftHandPinky1
                {
                  OFFSET 6.500000 -2.000000 0.500000
                  CHANNELS 3 Zrotation Xrotation Yrotation
                  JOINT LeftHandPinky2
                  {
                    OFFSET 1.900000 0.000000 0.000000
                    CHANNELS 3 Zrotation Xrotation Yrotation
                    JOINT LeftHandPinky3
                    {
                      OFFSET 1.400000 0.000000 0.000000
                      CHANNELS 3 Zrotation Xrotation Yrotation
                      End Site
                      {
                        OFFSET 1.300000 0.000000 0.000000
                      }
                    }
                  }
                }
              }
            }
          }
        }
        JOINT RightShoulder
        {
          OFFSET -6.000000 8.000000 0.000000
          CHANNELS 3 Zrotation Xrotation Yrotation
          JOINT RightArm
          {
            OFFSET -12.000000 0.000000 0.000000
            CHANNELS 3 Zrotation Xrotation Yrotation
            JOINT RightForeArm
            {
              OFFSET -24.000000 0.000000 0.000000
              CHANNELS 3 Zrotation Xrotation Yrotation
              JOINT RightHand
              {
                OFFSET -22.000000 0.000000 0.000000
                CHANNELS 3 Zrotation Xrotation Yrotation
                JOINT RightHandThumb1
                {
                  OFFSET -1.800000 -1.400000 0.500000
                  CHANNELS 3 Zrotation Xrotation Yrotation
                  JOINT RightHandThumb2
                  {
                    OFFSET -2.400000 0.000000 0.000000
                    CHANNELS 3 Zrotation Xrotation Yrotation
                    JOINT RightHandThumb3
                    {
                      OFFSET -1.900000 0.000000 0.000000
                      CHANNELS 3 Zrotation Xrotation Yrotation
                      End Site
                      {
                        OFFSET -1.600000 0.000000 0.000000
                      }
                    }
                  }
                }
                JOINT RightHandIndex1
                {
                  OFFSET -6.600000 1.200000 0.300000
                  CHANNELS 3 Zrotation Xrotation Yrotation
                  JOINT RightHandIndex2
                  {
                    OFFSET -2.000000 0.000000 0.000000
                    CHANNELS 3 Zrotation Xrotation Yrotation
                    JOINT RightHandIndex3
                    {
                      OFFSET -1.200000 0.000000 0.000000
                      CHANNELS 3 Zrotation Xrotation Yrotation
                      End Site
                      {
                        OFFSET -1.000000 0.000000 0.000000
                      }
                    }
                  }
                }
                JOINT RightHandMiddle1
                {
                  OFFSET -7.200000 0.000000 0.300000
                  CHANNELS 3 Zrotation Xrotation Yrotation
                  JOINT RightHandMiddle2
                  {
                    OFFSET -3.000000 0.000000 0.000000
                    CHANNELS 3 Zrotation Xrotation Yrotation
                    JOINT RightHandMiddle3
                    {
                      OFFSET -2.000000 0.000000 0.000000
                      CHANNELS 3 Zrotation Xrotation Yrotation
                      End Site
                      {
                        OFFSET -1.600000 0.000000 0.000000
                      }
                    }
                  }
                }
                JOINT RightHandRing1
                {
                  OFFSET -7.100000 -1.000000 0.400000
                  CHANNELS 3 Zrotation Xrotation Yrotation
                  JOINT RightHandRing2
                  {
                    OFFSET -2.600000 0.000000 0.000000
                    CHANNELS 3 Zrotation Xrotation Yrotation
                    JOINT RightHandRing3
                    {
                      OFFSET -1.600000 0.000000 0.000000
                      CHANNELS 3 Zrotation Xrotation Yrotation
                      End Site
                      {
                        OFFSET -1.300000 0.000000 0.000000
                      }
                    }
                  }
                }
                JOINT RightHandPinky1
                {
                  OFFSET -6.500000 -2.000000 0.500000
                  CHANNELS 3 Zrotation Xrotation Yrotation
                  JOINT RightHandPinky2
                  {
                    OFFSET -1.900000 0.000000 0.000000
                    CHANNELS 3 Zrotation Xrotation Yrotation
                    JOINT RightHandPinky3
                    {
                      OFFSET -1.400000 0.000000 0.000000
                      CHANNELS 3 Zrotation Xrotation Yrotation
                      End Site
                      {
                        OFFSET -1.300000 0.000000 0.000000
                      }
                    }
                  }
                }
              }
            }
          }
        }
      }
    }
  }
  JOINT LeftUpLeg
  {
    OFFSET 10.000000 -5.000000 0.000000
    CHANNELS 3 Zrotation Xrotation Yrotation
    JOINT LeftLeg
    {
      OFFSET 0.000000 -42.000000 0.000000
      CHANNELS 3 Zrotation Xrotation Yrotation
      JOINT LeftFoot
      {
        OFFSET 0.000000 -42.000000 4.000000
        CHANNELS 3 Zrotation Xrotation Yrotation
        End Site
        {
          OFFSET 0.000000 0.000000 12.000000
        }
      }
    }
  }
  JOINT RightUpLeg
  {
    OFFSET -10.000000 -5.000000 0.000000
    CHANNELS 3 Zrotation Xrotation Yrotation
    JOINT RightLeg
    {
      OFFSET 0.000000 -42.000000 0.000000
      CHANNELS 3 Zrotation Xrotation Yrotation
      JOINT RightFoot
      {
        OFFSET 0.000000 -42.000000 4.000000
        CHANNELS 3 Zrotation Xrotation Yrotation
        End Site
        {
          OFFSET 0.000000 0.000000 12.000000
        }
      }
    }
  }
}
MOTION
Frames: 9
Frame Time: 0.033333
0.0000 95.0000 0.0000 0.0000 0.0000 0.0000 0.0000 0.0000 0.0000 0.0000 0.0000 0.0000 0.0000 0.0000 0.0000 0.0000 0.0000 0.0000 0.0000 0.0000 0.0000 0.0000 0.0000 0.0000 -75.7645 -1.1450 -1.4718 -15.9568 -6.4795 10.7442 23.4558 10.1782 -17.7766 69.1418 -14.0928 3.2927 39.6996 0.0000 0.0000 17.0002 0.0000 0.0000 -20.8168 0.9033 -10.4408 110.0000 0.0000 0.0000 8.9673 0.0000 0.0000 -16.0295 -2.1855 -20.2012 110.0000 0.0000 0.0000 12.5030 0.0000 0.0000 -9.4959 -6.0069 -28.7046 110.0000 0.0000 0.0000 22.2006 0.0000 0.0000 1.4830 -5.8496 -19.6253 110.0000 0.0000 0.0000 20.5089 0.0000 0.0000 0.0000 0.0000 0.0000 85.3477 -4.8378 5.2469 2.7593 7.9243 9.1813 109.3826 26.0784 178.3143 -58.8341 -11.3461 -8.4258 58.2216 0.0000 0.0000 27.0928 0.0000 0.0000 59.8929 1.7293 2.7596 46.8289 0.0000 0.0000 41.1005 0.0000 0.0000 58.5545 -0.5593 5.7695 104.8386 0.0000 0.0000 56.2237 0.0000 0.0000 50.8090 -0.2198 5.3095 110.0000 0.0000 0.0000 34.6450 0.0000 0.0000 41.2128 -1.5378 6.8391 110.0000 0.0000 0.0000 21.9826 0.0000 0.0000 0.0000 0.0000 0.0000 0.0000 0.0000 0.0000 0.0000 0.0000 0.0000 0.0000 0.0000 0.0000 0.0000 0.0000 0.0000 0.0000 0.0000 0.0000
0.0000 95.0000 0.0000 0.0000 0.0000 0.0000 0.0000 0.0000 0.0000 0.0000 0.0000 0.0000 0.0000 0.0000 0.0000 0.0000 0.0000 0.0000 0.0000 0.0000 0.0000 0.0000 0.0000 0.0000 -75.6831 -1.1395 -1.4667 -15.9289 -6.4120 10.6415 23.3862 10.0767 -17.7020 69.1418 -14.0928 3.2927 39.6996 0.0000 0.0000 17.0002 0.0000 0.0000 -20.8168 0.9033 -10.4408 110.0000 0.0000 0.0000 8.9673 0.0000 0.0000 -16.0295 -2.1855 -20.2012 110.0000 0.0000 0.0000 12.5030 0.0000 0.0000 -9.4959 -6.0069 -28.7046 110.0000 0.0000 0.0000 22.2006 0.0000 0.0000 1.4830 -5.8496 -19.6253 110.0000 0.0000 0.0000 20.5089 0.0000 0.0000 0.0000 0.0000 0.0000 85.3207 -4.9505 5.3716 2.8314 7.6808 8.9344 109.4878 25.9475 178.4771 -58.8341 -11.3461 -8.4258 58.2216 0.0000 0.0000 27.0928 0.0000 0.0000 59.8929 1.7293 2.7596 46.8289 0.0000 0.0000 41.1005 0.0000 0.0000 58.5545 -0.5593 5.7695 104.8386 0.0000 0.0000 56.2237 0.0000 0.0000 50.8090 -0.2198 5.3095 110.0000 0.0000 0.0000 34.6450 0.0000 0.0000 41.2128 -1.5378 6.8391 110.0000 0.0000 0.0000 21.9826 0.0000 0.0000 0.0000 0.0000 0.0000 0.0000 0.0000 0.0000 0.0000 0.0000 0.0000 0.0000 0.0000 0.0000 0.0000 0.0000 0.0000 0.0000 0.0000 0.0000
0.0000 95.0000 0.0000 0.0000 0.0000 0.0000 0.0000 0.0000 0.0000 0.0000 0.0000 0.0000 0.0000 0.0000 0.0000 0.0000 0.0000 0.0000 0.0000 0.0000 0.0000 0.0000 0.0000 0.0000 -75.6871 -1.4759 -1.8997 -15.6873 -6.7102 10.9667 23.1367 9.9312 -17.6463 69.1418 -14.0928 3.2927 39.6996 0.0000 0.0000 17.0002 0.0000 0.0000 -20.8168 0.9033 -10.4408 110.0000 0.0000 0.0000 8.9673 0.0000 0.0000 -16.0295 -2.1855 -20.2012 110.0000 0.0000 0.0000 12.5030 0.0000 0.0000 -9.4959 -6.0069 -28.7046 110.0000 0.0000 0.0000 22.2006 0.0000 0.0000 1.4830 -5.8496 -19.6253 110.0000 0.0000 0.0000 20.5089 0.0000 0.0000 0.0000 0.0000 0.0000 85.2655 -4.8246 5.2402 2.4623 7.6834 8.8514 109.0210 25.8201 178.4966 -58.8341 -11.3461 -8.4258 58.2216 0.0000 0.0000 27.0928 0.0000 0.0000 59.8929 1.7293 2.7596 46.8289 0.0000 0.0000 41.1005 0.0000 0.0000 58.5545 -0.5593 5.7695 104.8386 0.0000 0.0000 56.2237 0.0000 0.0000 50.8090 -0.2198 5.3095 110.0000 0.0000 0.0000 34.6450 0.0000 0.0000 41.2128 -1.5378 6.8391 110.0000 0.0000 0.0000 21.9826 0.0000 0.0000 0.0000 0.0000 0.0000 0.0000 0.0000 0.0000 0.0000 0.0000 0.0000 0.0000 0.0000 0.0000 0.0000 0.0000 0.0000 0.0000 0.0000 0.0000
0.0000 95.0000 0.0000 0.0000 0.0000 0.0000 0.0000 0.0000 0.0000 0.0000 0.0000 0.0000 0.0000 0.0000 0.0000 0.0000 0.0000 0.0000 0.0000 0.0000 0.0000 0.0000 0.0000 0.0000 -75.7348 -1.4802 -1.9035 -15.6325 -6.7654 11.0400 23.1015 9.9848 -17.7111 69.1418 -14.0928 3.2927 39.6996 0.0000 0.0000 17.0002 0.0000 0.0000 -20.8168 0.9033 -10.4408 110.0000 0.0000 0.0000 8.9673 0.0000 0.0000 -16.0295 -2.1855 -20.2012 110.0000 0.0000 0.0000 12.5030 0.0000 0.0000 -9.4959 -6.0069 -28.7046 110.0000 0.0000 0.0000 22.2006 0.0000 0.0000 1.4830 -5.8496 -19.6253 110.0000 0.0000 0.0000 20.5089 0.0000 0.0000 0.0000 0.0000 0.0000 85.3070 -4.8071 5.2174 2.1788 7.6430 8.7307 108.7687 25.7413 178.5181 -58.8341 -11.3461 -8.4258 58.2216 0.0000 0.0000 27.0928 0.0000 0.0000 59.8929 1.7293 2.7596 46.8289 0.0000 0.0000 41.1005 0.0000 0.0000 58.5545 -0.5593 5.7695 104.8386 0.0000 0.0000 56.2237 0.0000 0.0000 50.8090 -0.2198 5.3095 110.0000 0.0000 0.0000 34.6450 0.0000 0.0000 41.2128 -1.5378 6.8391 110.0000 0.0000 0.0000 21.9826 0.0000 0.0000 0.0000 0.0000 0.0000 0.0000 0.0000 0.0000 0.0000 0.0000 0.0000 0.0000 0.0000 0.0000 0.0000 0.0000 0.0000 0.0000 0.0000 0.0000
0.0000 95.0000 0.0000 0.0000 0.0000 0.0000 0.0000 0.0000 0.0000 0.0000 0.0000 0.0000 0.0000 0.0000 0.0000 0.0000 0.0000 0.0000 0.0000 0.0000 0.0000 0.0000 0.0000 0.0000 -75.6180 -1.5427 -1.9882 -15.7835 -6.8413 11.1978 23.1037 10.0359 -17.7604 69.1418 -14.0928 3.2927 39.6996 0.0000 0.0000 17.0002 0.0000 0.0000 -20.8168 0.9033 -10.4408 110.0000 0.0000 0.0000 8.9673 0.0000 0.0000 -16.0295 -2.1855 -20.2012 110.0000 0.0000 0.0000 12.5030 0.0000 0.0000 -9.4959 -6.0069 -28.7046 110.0000 0.0000 0.0000 22.2006 0.0000 0.0000 1.4830 -5.8496 -19.6253 110.0000 0.0000 0.0000 20.5089 0.0000 0.0000 0.0000 0.0000 0.0000 85.5022 -5.0807 5.4954 1.9448 7.4329 8.4171 108.7915 25.7510 178.5135 -58.8341 -11.3461 -8.4258 58.2216 0.0000 0.0000 27.0928 0.0000 0.0000 59.8929 1.7293 2.7596 46.8289 0.0000 0.0000 41.1005 0.0000 0.0000 58.5545 -0.5593 5.7695 104.8386 0.0000 0.0000 56.2237 0.0000 0.0000 50.8090 -0.2198 5.3095 110.0000 0.0000 0.0000 34.6450 0.0000 0.0000 41.2128 -1.5378 6.8391 110.0000 0.0000 0.0000 21.9826 0.0000 0.0000 0.0000 0.0000 0.0000 0.0000 0.0000 0.0000 0.0000 0.0000 0.0000 0.0000 0.0000 0.0000 0.0000 0.0000 0.0000 0.0000 0.0000 0.0000
0.0000 95.0000 0.0000 0.0000 0.0000 0.0000 0.0000 0.0000 0.0000 0.0000 0.0000 0.0000 0.0000 0.0000 0.0000 0.0000 0.0000 0.0000 0.0000 0.0000 0.0000 0.0000 0.0000 0.0000 -75.7354 -1.6870 -2.1695 -15.7744 -6.8616 11.1428 23.2727 9.8821 -17.5512 69.1418 -14.0928 3.2927 39.6996 0.0000 0.0000 17.0002 0.0000 0.0000 -20.8168 0.9033 -10.4408 110.0000 0.0000 0.0000 8.9673 0.0000 0.0000 -16.0295 -2.1855 -20.2012 110.0000 0.0000 0.0000 12.5030 0.0000 0.0000 -9.4959 -6.0069 -28.7046 110.0000 0.0000 0.0000 22.2006 0.0000 0.0000 1.4830 -5.8496 -19.6253 110.0000 0.0000 0.0000 20.5089 0.0000 0.0000 0.0000 0.0000 0.0000 85.4446 -5.0123 5.4269 2.1369 7.5132 8.5596 108.9144 25.7837 178.5090 -58.8341 -11.3461 -8.4258 58.2216 0.0000 0.0000 27.0928 0.0000 0.0000 59.8929 1.7293 2.7596 46.8289 0.0000 0.0000 41.1005 0.0000 0.0000 58.5545 -0.5593 5.7695 104.8386 0.0000 0.0000 56.2237 0.0000 0.0000 50.8090 -0.2198 5.3095 110.0000 0.0000 0.0000 34.6450 0.0000 0.0000 41.2128 -1.5378 6.8391 110.0000 0.0000 0.0000 21.9826 0.0000 0.0000 0.0000 0.0000 0.0000 0.0000 0.0000 0.0000 0.0000 0.0000 0.0000 0.0000 0.0000 0.0000 0.0000 0.0000 0.0000 0.0000 0.0000 0.0000
0.0000 95.0000 0.0000 0.0000 0.0000 0.0000 0.0000 0.0000 0.0000 0.0000 0.0000 0.0000 0.0000 0.0000 0.0000 0.0000 0.0000 0.0000 0.0000 0.0000 0.0000 0.0000 0.0000 0.0000 -75.8423 -1.3465 -1.7283 -15.5784 -6.4765 10.5667 23.2795 9.7848 -17.4537 69.1418 -14.0928 3.2927 39.6996 0.0000 0.0000 17.0002 0.0000 0.0000 -20.8168 0.9033 -10.4408 110.0000 0.0000 0.0000 8.9673 0.0000 0.0000 -16.0295 -2.1855 -20.2012 110.0000 0.0000 0.0000 12.5030 0.0000 0.0000 -9.4959 -6.0069 -28.7046 110.0000 0.0000 0.0000 22.2006 0.0000 0.0000 1.4830 -5.8496 -19.6253 110.0000 0.0000 0.0000 20.5089 0.0000 0.0000 0.0000 0.0000 0.0000 84.9505 -4.8609 5.3088 2.9324 7.6201 8.9463 109.1961 25.8775 178.4791 -58.8341 -11.3461 -8.4258 58.2216 0.0000 0.0000 27.0928 0.0000 0.0000 59.8929 1.7293 2.7596 46.8289 0.0000 0.0000 41.1005 0.0000 0.0000 58.5545 -0.5593 5.7695 104.8386 0.0000 0.0000 56.2237 0.0000 0.0000 50.8090 -0.2198 5.3095 110.0000 0.0000 0.0000 34.6450 0.0000 0.0000 41.2128 -1.5378 6.8391 110.0000 0.0000 0.0000 21.9826 0.0000 0.0000 0.0000 0.0000 0.0000 0.0000 0.0000 0.0000 0.0000 0.0000 0.0000 0.0000 0.0000 0.0000 0.0000 0.0000 0.0000 0.0000 0.0000 0.0000
0.0000 95.0000 0.0000 0.0000 0.0000 0.0000 0.0000 0.0000 0.0000 0.0000 0.0000 0.0000 0.0000 0.0000 0.0000 0.0000 0.0000 0.0000 0.0000 0.0000 0.0000 0.0000 0.0000 0.0000 -75.9676 -0.6143 -0.7868 -15.4589 -6.4304 10.7473 22.9827 10.6750 -18.4296 69.1418 -14.0928 3.2927 39.6996 0.0000 0.0000 17.0002 0.0000 0.0000 -20.8168 0.9033 -10.4408 110.0000 0.0000 0.0000 8.9673 0.0000 0.0000 -16.0295 -2.1855 -20.2012 110.0000 0.0000 0.0000 12.5030 0.0000 0.0000 -9.4959 -6.0069 -28.7046 110.0000 0.0000 0.0000 22.2006 0.0000 0.0000 1.4830 -5.8496 -19.6253 110.0000 0.0000 0.0000 20.5089 0.0000 0.0000 0.0000 0.0000 0.0000 84.8316 -4.2222 4.6209 4.0179 7.9448 9.5793 110.1184 25.6249 178.9640 -58.8341 -11.3461 -8.4258 58.2216 0.0000 0.0000 27.0928 0.0000 0.0000 59.8929 1.7293 2.7596 46.8289 0.0000 0.0000 41.1005 0.0000 0.0000 58.5545 -0.5593 5.7695 104.8386 0.0000 0.0000 56.2237 0.0000 0.0000 50.8090 -0.2198 5.3095 110.0000 0.0000 0.0000 34.6450 0.0000 0.0000 41.2128 -1.5378 6.8391 110.0000 0.0000 0.0000 21.9826 0.0000 0.0000 0.0000 0.0000 0.0000 0.0000 0.0000 0.0000 0.0000 0.0000 0.0000 0.0000 0.0000 0.0000 0.0000 0.0000 0.0000 0.0000 0.0000 0.0000
0.0000 95.0000 0.0000 0.0000 0.0000 0.0000 0.0000 0.0000 0.0000 0.0000 0.0000 0.0000 0.0000 0.0000 0.0000 0.0000 0.0000 0.0000 0.0000 0.0000 0.0000 0.0000 0.0000 0.0000 -76.3949 0.0766 0.0974 -14.0954 -6.2336 10.3238 21.9677 10.8923 -19.0141 69.1418 -14.0928 3.2927 39.6996 0.0000 0.0000 17.0002 0.0000 0.0000 -20.8168 0.9033 -10.4408 110.0000 0.0000 0.0000 8.9673 0.0000 0.0000 -16.0295 -2.1855 -20.2012 110.0000 0.0000 0.0000 12.5030 0.0000 0.0000 -9.4959 -6.0069 -28.7046 110.0000 0.0000 0.0000 22.2006 0.0000 0.0000 1.4830 -5.8496 -19.6253 110.0000 0.0000 0.0000 20.5089 0.0000 0.0000 0.0000 0.0000 0.0000 84.0021 -3.9406 4.3759 5.9871 8.4068 10.7612 111.1986 26.1072 178.7279 -58.8341 -11.3461 -8.4258 58.2216 0.0000 0.0000 27.0928 0.0000 0.0000 59.8929 1.7293 2.7596 46.8289 0.0000 0.0000 41.1005 0.0000 0.0000 58.5545 -0.5593 5.7695 104.8386 0.0000 0.0000 56.2237 0.0000 0.0000 50.8090 -0.2198 5.3095 110.0000 0.0000 0.0000 34.6450 0.0000 0.0000 41.2128 -1.5378 6.8391 110.0000 0.0000 0.0000 21.9826 0.0000 0.0000 0.0000 0.0000 0.0000 0.0000 0.0000 0.0000 0.0000 0.0000 0.0000 0.0000 0.0000 0.0000 0.0000 0.0000 0.0000 0.0000 0.0000 0.0000
